<svg version="1" xmlns="http://www.w3.org/2000/svg" width="533.333" height="533.333" viewBox="0 0 400.000000 400.000000"><path d="M141.7 7.5c-24.8 6.8-39.4 31-33.2 55 3.1 11.6 11.1 21.9 22 28.2l5 2.9.3 12.2c.2 10.7.1 12.3-1.4 12.9-1 .3-5.8-.8-10.8-2.5-14.4-5-20.3-6.2-32.1-6.9-18.6-1-25.9 2.6-30.1 14.9-1.5 4.1-1.9 8.2-1.9 17.8 0 13.3 1.6 20.4 6.9 30.8l2.3 4.5-4.3 9.1c-9.5 20.1-12.8 35.2-12.8 58.1-.1 17.6 1.3 26.3 6.5 42 9.4 28.1 29.7 54.3 55.2 71.3 5.9 4 11.2 7.2 11.8 7.2.5 0 .9 5.6.9 13.3 0 19.1-2.5 17.7 32.1 17.7 27.5 0 27.6 0 29.7-2.3 1.7-1.8 2.2-3.6 2.2-8V380h20v5.8c0 4.8.4 6.2 2.3 8 2.3 2.1 3 2.2 29.8 2.2 34.4 0 31.9 1.4 31.9-17.8 0-7.6.4-13.2.9-13.2.6 0 5.9-3.2 11.8-7.2 25.5-17 45.8-43.2 55.2-71.3 5.2-15.7 6.6-24.4 6.5-42 0-22.9-3.3-38-12.8-58.1l-4.3-9.1 2.3-4.5c5.3-10.4 6.9-17.5 6.9-30.8 0-9.6-.4-13.7-1.9-17.8-4.2-12.3-11.5-15.9-30.1-14.9-11.8.7-17.7 1.9-32.1 6.9-5 1.7-9.8 2.8-10.8 2.5-1.5-.6-1.6-2.2-1.4-12.9l.3-12.2 5-2.9c36.1-20.9 28.9-72.5-11.6-83.2-7.6-2.1-108.9-2-116.2 0zm118.5 16.3c6.5 3.2 12.5 9.4 15.5 15.9 2.2 4.8 2.5 6.5 2.1 13.2-.6 9-2.7 13.7-9 19.8-2.4 2.3-7.3 5.6-10.9 7.2-3.7 1.7-6.9 3.7-7.3 4.6-.3.9-.6 7.5-.6 14.7v13l-2.2-.6c-20.5-6-42.7-8.5-60.1-6.8-10.2 1-26.3 4.1-35.4 6.8l-2.3.6v-13c0-7.2-.3-13.8-.6-14.7-.4-.9-3.6-2.9-7.3-4.6-7.4-3.4-14.2-9.4-17.3-15.4-2.9-5.5-3.6-17.6-1.4-23 2.6-6.2 6.2-10.9 11.1-14.4 8.6-6.2 6.9-6 66.5-5.8l54.5.2 4.7 2.3zm-38.3 97.7c40.7 8.5 73.4 39.9 83.5 80.1 12.5 49.3-12 101.7-57.8 123.9-36.7 17.8-79.8 13.8-112.2-10.3-52.4-39-59.1-114.5-14.3-161.7 17.9-18.8 40.5-30.3 65.9-33.5 8.5-1.1 26.2-.3 34.9 1.5zm-119.4 4c3.8.8 9.8 2.4 13.3 3.6l6.3 2.1-9.8 10.2c-9.2 9.4-18.9 22.6-23 31-.9 2-2 3.6-2.5 3.6-1.3 0-7.7-10.3-10-16.1-4.1-10.6-3.4-32.3 1.1-34.9 2.5-1.4 16.8-1.1 24.6.5zM322 125c4.6 2.4 5.3 24.2 1.2 34.9-2.3 5.8-8.7 16.1-10 16.1-.5 0-1.6-1.6-2.5-3.6-4.1-8.4-13.8-21.6-23-31l-9.8-10.2 6.4-2.1c13.7-4.6 32.9-6.7 37.7-4.1zM80.4 194.1c0 1.3-.9 6-1.9 10.4-2.7 12.1-2.5 35.8.4 49 5.6 24.9 17.2 45.6 35.2 63.2 23.5 22.8 52.9 34.7 85.9 34.7 33 0 62.4-11.9 85.9-34.7 18-17.6 29.6-38.3 35.2-63.2 2.9-13.2 3.1-36.9.4-49-2.2-9.5-2.4-12.7-.9-13.2 1.1-.4 6.4 11.6 8.9 20.2 15.5 53.1-8.9 110.2-59.5 139.3-4.7 2.7-9 5.9-9.7 7.3-.8 1.4-1.3 6.5-1.3 12.6V381h-34v-5c0-5.3-2.2-10.9-4.3-11.1-3.8-.4-40.4-.4-41.5-.1-2.2.7-4.2 5.9-4.2 11.2v5h-34v-10.3c0-6.1-.5-11.2-1.3-12.6-.7-1.4-5-4.6-9.7-7.3-23.2-13.3-40.9-32.2-52.1-55.3-15-31.1-15.9-64.6-2.7-96.8 3.1-7.5 5.4-9.5 5.2-4.6z"/><path d="M171.2 59.2c-1.8 1.8-1.5 5 1.3 11.2 1.4 3.1 2.5 5.8 2.5 6 0 .3-3 .7-6.7 1.1-9.3.9-11.3 1.8-11.3 5.4 0 5 1.6 5.4 14.3 4.2 6.2-.6 19.1-1.1 28.7-1.1 9.6 0 22.5.5 28.7 1.1 12.7 1.2 14.3.8 14.3-4.2 0-3.6-2-4.5-11.2-5.4-3.8-.4-6.8-.8-6.8-1.1 0-.2 1.1-2.9 2.5-6 3.7-8.4 3-12.4-2-12.4-3 0-4.7 2.3-8.1 10.7l-2.9 7.3h-29l-2.9-7.3c-1.6-3.9-3.6-8-4.4-9-1.7-2-5.3-2.2-7-.5zM122 209.5c-.7.9-1 2.5-.6 4 .8 3.3-2.9 6.9-5.6 5.4-5.4-2.9-9 1.8-4.4 5.7 3.5 3.1 3.5 7.1.1 8-3 .7-4.8 3.5-3.8 5.9.5 1.4 1.5 1.6 5 1.2 3.2-.3 4.6-.1 5 .9 1.8 4.6 14.1 7.1 20.1 4 11.6-6 11.7-22.7.3-28.6-2.2-1.1-5.1-2-6.3-2-1.7 0-2.7-.9-3.5-3-1.2-3.3-4.2-4-6.3-1.5zM271.7 211c-.8 2.1-1.8 3-3.5 3-1.2 0-4.1.9-6.3 2-11.4 5.9-11.3 22.6.3 28.6 6 3.1 18.3.6 20.1-4 .4-1 1.8-1.2 5-.9 3.5.4 4.5.2 5-1.2 1-2.4-.8-5.2-3.8-5.9-3.4-.9-3.4-4.9.1-8 4.6-3.9 1-8.6-4.4-5.7-2.7 1.5-6.4-2.1-5.6-5.4 1.4-5.5-4.9-7.8-6.9-2.5zM187.9 247.3c-15.6 5.3-25.3 19-25.2 35.7 0 9.7 2.9 17.2 9 24.1 8.1 8.9 16.8 12.9 28.3 12.9 19.2 0 34.6-13.7 37.4-33.3 1.9-12.8-5.5-28.1-17.2-35.5-10-6.4-21.1-7.7-32.3-3.9zm23.7 10.5c6.5 3.3 10.1 6.9 13 12.9 9 18.2-4.2 39.3-24.6 39.3-13.5 0-23.5-8.3-27-22.3-3.2-12.4 5.1-26.3 18.7-31.3 5.1-1.9 14.8-1.2 19.9 1.4z"/><path d="M182.2 278.2c-2.4 3.1-2.3 5.7.2 8.3 2.9 2.9 4.3 3.1 7.4.9 2.5-1.7 3.1-7.1 1-9.2-1.6-1.6-7.3-1.5-8.6 0zM209 278.5c-2 2.4-1.5 6.7 1 8.7 3 2.4 4.6 2.3 7.6-.7 2.5-2.6 2.6-5.2.2-8.3-1.4-1.7-7.3-1.5-8.8.3z"/></svg>